<?xml version="1.0" encoding="utf-8"?>
<!DOCTYPE svg PUBLIC "-//W3C//DTD SVG 1.1//EN" "http://www.w3.org/Graphics/SVG/1.1/DTD/svg11.dtd">
<!-- exported from Silhouette Studio® Business Edition V4.3.370ssbe -->
<svg version="1.1" xmlns="http://www.w3.org/2000/svg" xmlns:xlink="http://www.w3.org/1999/xlink" width="304.8mm" height="304.8mm" viewBox="0 0 304.8 304.8">
<defs/>
<path d="M 156.0213 264.0229 C 151.9304 263.2664 148.2022 260.2674 145.1789 255.3014 C 141.0497 248.519 138.1309 237.4109 136.509 222.3071 C 136.336 220.6959 136.1563 219.1982 136.1096 218.9788 L 136.0247 218.5798 L 134.8629 219.5118 C 133.0842 220.9385 130.597 222.5212 128.5269 223.5438 C 126.7095 224.4416 126.6572 224.4782 126.7278 224.7998 C 126.8907 225.5417 126.9881 229.2213 126.8949 231.1161 C 126.559 237.9504 124.1491 244.1115 120.2178 248.1868 C 118.1659 250.3138 116.0012 251.6688 113.4598 252.417 C 112.3955 252.7303 112.1284 252.7592 110.2799 252.7605 C 108.4444 252.7619 108.152 252.7313 107.046 252.4222 C 102.4928 251.1499 98.82063 247.8884 96.27168 242.8528 C 94.66584 239.6804 93.27325 235.3132 92.66325 231.5368 C 92.58175 231.0322 92.32547 230.0963 92.09378 229.4571 C 91.86211 228.8179 91.61002 228.0885 91.53362 227.8362 C 91.45721 227.5839 91.33729 227.3783 91.26709 227.3793 C 91.19691 227.3803 90.64439 228.1373 90.03929 229.0614 C 85.83921 235.4758 80.75227 241.5444 77.13577 244.4548 C 72.19261 248.4329 66.00462 251.4064 60.85882 252.2763 C 59.03479 252.5847 55.82915 252.6451 54.08165 252.4039 C 49.17306 251.7267 44.84428 249.5453 41.13488 245.8794 C 37.70993 242.4946 35.35206 238.0574 33.90361 232.2708 C 32.93195 228.3891 32.5321 223.3604 32.75003 217.763 C 32.87869 214.4585 32.99917 213.0175 33.35256 210.5563 C 34.07429 205.5298 35.50868 200.3336 37.19518 196.6364 C 37.50126 195.9653 37.58478 195.6688 37.47787 195.6326 C 37.39441 195.6044 36.85025 195.4711 36.26863 195.3364 C 33.86112 194.7788 30.65321 193.4032 28.58145 192.0398 C 27.12612 191.0822 25.07046 189.0115 24.56726 187.9965 C 24.05431 186.9617 24.04108 186.1969 24.52028 185.2793 C 25.14014 184.0925 26.42819 183.5786 27.71311 184.0055 C 28.20314 184.1683 28.46603 184.3638 28.91922 184.9027 C 30.77259 187.1064 32.49133 188.2601 35.58815 189.379 C 36.67642 189.7723 38.88277 190.3353 39.89876 190.4791 L 40.39224 190.549 L 41.42362 188.9956 C 47.54138 179.7815 56.42959 172.4471 64.59972 169.8711 C 66.93396 169.1351 69.76358 168.9102 71.63214 169.3121 C 74.27025 169.8796 76.1435 171.6147 76.97218 174.2585 C 77.26597 175.1958 77.2851 175.3913 77.22372 176.8276 C 77.14553 178.6571 76.83862 179.784 75.91183 181.6441 C 72.62499 188.2412 65.00435 193.6799 56.34425 195.6092 C 53.54059 196.2338 49.68962 196.5777 46.07303 196.5266 L 43.32345 196.4877 L 42.56195 198.1615 C 40.65918 202.3437 39.53577 206.297 38.81376 211.3515 C 38.4495 213.9014 38.3786 214.7625 38.25461 218.1411 C 38.04663 223.8088 38.50417 228.4407 39.66849 232.4544 C 41.60772 239.1393 45.44174 243.7046 50.99258 245.9382 C 52.84921 246.6853 54.29543 246.9694 56.61313 247.0421 C 58.25618 247.0937 58.74102 247.063 59.9748 246.8297 C 64.42451 245.9881 69.01419 243.7827 73.42195 240.3682 C 76.45895 238.0155 81.12438 232.5126 84.94174 226.7803 C 87.22158 223.3569 87.5976 222.7163 87.93385 221.683 C 88.53854 219.8248 89.31385 216.5877 89.74518 214.1203 C 89.87614 213.3712 90.09113 212.1391 90.22296 211.3821 C 90.36232 210.5819 90.58898 209.7565 90.76448 209.4101 C 91.24644 208.4588 92.18372 207.8038 93.06313 207.8038 C 93.40628 207.8038 93.54707 207.7015 94.01491 207.1124 C 95.92943 204.7018 99.38548 202.755 103.2475 201.9118 C 105.067 201.5146 107.6516 201.5361 109.4849 201.9638 C 112.9191 202.7648 115.7612 204.3678 118.4289 207.0083 C 121.4494 209.9979 123.8767 214.0179 125.2617 218.3246 C 125.3807 218.6947 125.501 219.0379 125.529 219.0874 C 125.6172 219.2429 127.767 218.093 129.3592 217.0387 C 131.1996 215.82 132.7971 214.4928 134.4152 212.8385 C 135.4818 211.748 135.6111 211.5691 135.5519 211.2657 C 135.1492 209.2014 135.0177 186.8212 135.3824 182.4192 C 136.3101 171.2209 137.8488 164.0103 140.3925 158.9418 C 142.687 154.3697 145.9675 152.0775 149.3627 152.674 C 153.73 153.4412 156.5188 158.2609 157.0167 165.9019 C 157.1721 168.2869 157.0222 172.154 156.6893 174.345 C 156.5871 175.0179 156.4455 175.9813 156.3747 176.4859 C 155.6429 181.703 153.4734 189.8223 151.406 195.0809 C 149.8511 199.0361 147.8704 203.1226 146.0101 206.2134 C 145.3419 207.3236 144.8145 208.2525 144.8381 208.2776 C 144.9942 208.4436 153.745 203.8744 156.8774 201.9913 C 157.5164 201.6072 158.1949 201.2027 158.3851 201.0924 C 159.2705 200.579 162.9685 198.0747 164.3775 197.0342 L 165.9459 195.8761 L 165.88 194.7139 C 165.3861 186.0083 165.6804 174.752 166.5516 169.0234 C 167.2583 164.3764 168.2037 161.0005 169.5433 158.3405 C 170.237 156.9632 170.661 156.3513 171.6459 155.3071 C 173.6837 153.1463 176.2918 152.3403 178.7697 153.1054 C 181.6592 153.9976 184.4336 156.6569 185.9896 160.0257 C 188.4812 165.4203 187.995 172.987 184.6724 180.523 C 183.1037 184.0806 181.5255 186.7856 179.2833 189.7593 C 177.5873 192.0087 175.0681 194.7629 172.9052 196.7324 C 171.5052 198.0072 171.301 198.2407 171.3543 198.5063 C 171.388 198.6745 171.5124 199.8443 171.6306 201.1059 C 171.7488 202.3675 171.8915 203.3997 171.9477 203.3997 C 172.004 203.3997 172.7501 202.897 173.6058 202.2827 C 174.4616 201.6683 178.7391 198.7859 183.1114 195.8773 C 190.7748 190.7794 192.3644 189.6889 195.1699 187.605 L 196.4657 186.6424 L 196.5382 184.7143 C 196.9971 172.4932 202.0759 163.6664 208.8563 163.3057 C 211.3282 163.1742 213.6677 164.2895 214.9825 166.2262 C 216.6567 168.6921 216.6689 171.8644 215.0166 175.079 C 213.1523 178.7062 209.8262 182.4079 204.2699 187.0396 C 203.059 188.0489 202.0311 188.9085 201.9855 188.95 C 201.847 189.0758 202.1077 191.0231 202.4542 192.4507 C 203.2656 195.7939 204.7657 198.0106 206.7091 198.7379 C 207.2302 198.9329 207.6778 198.9956 208.5487 198.9956 C 211.3115 198.9956 214.281 197.3855 217.3739 194.2104 C 218.9848 192.5566 219.8285 191.5123 221.1768 189.503 C 223.3348 186.2873 224.9503 183.1482 226.7132 178.7451 L 227.5474 176.6614 L 227.4814 174.708 C 227.2931 169.1304 229.0309 162.8211 232.0059 158.281 C 235.0162 153.6872 238.9006 151.0207 242.8565 150.8325 C 244.5133 150.7537 245.6151 150.9836 247.0736 151.7122 C 248.9857 152.6674 250.3273 154.1484 251.0085 156.0559 C 251.289 156.8417 251.3358 157.1666 251.3342 158.3191 C 251.3326 159.4505 251.2787 159.8303 250.9957 160.7047 C 250.3374 162.7384 249.3346 164.2686 247.3867 166.2116 C 245.5019 168.0919 243.5714 169.4689 238.637 172.4529 C 235.8598 174.1324 234.3029 175.1649 233.9107 175.5871 C 233.7328 175.7787 233.4429 176.2151 233.2665 176.557 L 232.9459 177.1786 L 233.2604 178.2697 C 233.8042 180.1558 234.4021 181.2432 235.5659 182.4622 C 236.7753 183.729 238.0105 184.484 239.9212 185.1244 C 240.9377 185.4651 241.0192 185.4727 243.5903 185.4686 C 246.0998 185.4646 246.2701 185.4491 247.3206 185.1296 C 247.9259 184.9454 248.8341 184.6248 249.3386 184.4171 C 254.4536 182.3109 259.5391 176.8736 263.6292 169.1373 C 266.5325 163.646 269.5728 155.5208 271.4766 148.1653 C 271.6856 147.3578 271.9319 146.4495 272.024 146.1467 C 272.1161 145.8439 272.394 144.8531 272.6414 143.9447 C 272.889 143.0363 273.2838 141.6601 273.5187 140.8863 C 273.7537 140.1125 274.0445 139.1491 274.1649 138.7455 C 274.8082 136.5885 275.7023 134.0443 275.9613 133.6339 C 276.4182 132.9099 277.2468 132.4446 278.0732 132.4479 C 279.614 132.4539 280.6482 133.4724 280.6482 134.9837 C 280.6482 135.3761 280.3404 136.5516 279.7263 138.5048 C 278.8167 141.3981 277.6759 145.2913 277.039 147.6759 C 274.6777 156.5164 272.5854 162.4858 269.6664 168.7098 C 265.7368 177.0891 260.8013 183.4102 255.2771 187.1388 C 253.8291 188.1162 251.2952 189.3513 249.7055 189.8547 C 247.4429 190.5711 244.399 191.0153 242.7456 190.8703 C 237.5002 190.4104 233.7028 188.5832 231.0176 185.227 C 230.5675 184.6644 230.1609 184.243 230.1142 184.2904 C 230.0674 184.3378 229.6479 185.1472 229.182 186.0892 C 224.5705 195.4128 218.5119 201.7293 212.2967 203.6932 C 210.8913 204.1373 209.514 204.3009 207.888 204.2171 C 205.2159 204.0795 203.3925 203.2855 201.4363 201.4079 C 199.5563 199.6035 198.3591 197.4065 197.4756 194.1394 C 197.2837 193.4301 197.1073 192.8302 197.0835 192.8065 C 197.0597 192.7827 196.3279 193.2649 195.4572 193.8782 C 194.5865 194.4915 190.5994 197.1701 186.597 199.8307 C 177.945 205.5822 176.1466 206.8227 176.2826 206.9451 C 176.3388 206.9957 177.7056 207.4651 179.32 207.9883 C 186.0323 210.1635 189.6015 211.7798 193.446 214.3851 C 200.4779 219.1503 204.3234 224.9708 204.899 231.7203 C 204.9962 232.8602 204.6654 235.0841 204.1893 236.4914 C 202.4398 241.6634 197.6335 244.993 191.9172 244.993 C 185.8396 244.993 180.2024 241.326 175.7019 234.4448 C 174.0373 231.8997 172.0305 227.6194 170.7825 223.952 C 168.992 218.6907 167.4421 211.2289 166.7295 204.4395 C 166.6235 203.4303 166.5092 202.4822 166.4754 202.3326 C 166.4188 202.0819 166.2308 202.183 164.0612 203.63 C 162.7672 204.4931 161.1305 205.5479 160.4242 205.9741 C 155.9684 208.6626 149.0667 212.2349 145.2892 213.8078 C 144.2634 214.235 143.4241 214.6252 143.4241 214.675 C 143.4241 214.8065 144.9742 215.7753 146.6651 216.7005 C 151.85 219.5373 155.7586 222.0891 158.9329 224.7094 C 165.7845 230.3655 169.871 236.4803 171.3848 243.3422 C 171.7092 244.8127 171.7357 245.1261 171.7364 247.5016 C 171.7372 249.7275 171.6992 250.2504 171.4522 251.4163 C 170.1031 257.7868 166.0963 262.4778 160.8411 263.8394 C 159.5788 264.1664 157.2721 264.2543 156.0213 264.0229 Z M 159.8471 258.686 C 164.6579 257.0795 167.4692 251.0167 166.3154 244.7368 C 165.4654 240.1104 163.0962 236.0292 158.7196 231.6517 C 154.7832 227.7145 151.5673 225.4079 144.7082 221.602 C 143.4302 220.8928 142.1802 220.1914 141.9305 220.0433 L 141.4765 219.774 L 141.544 220.4256 C 142.0664 225.4713 143.0363 231.964 143.8434 235.8186 C 146.6242 249.099 150.896 256.9704 156.2659 258.709 C 157.2343 259.0226 158.8707 259.0121 159.8471 258.686 Z M 111.977 247.3673 C 114.7325 246.7483 117.6163 243.9862 119.3987 240.2586 C 121.156 236.5836 122.1179 231.0482 121.6979 227.0284 C 121.6065 226.1542 121.6362 226.165 120.2945 226.5165 C 119.7904 226.6486 118.4024 226.8963 117.21 227.067 C 113.1379 227.65 108.8645 227.4541 105.0355 226.5089 C 102.4008 225.8585 99.19547 224.5077 97.47148 223.3213 L 96.94887 222.9616 L 96.94887 223.376 C 96.94887 224.1291 97.31729 227.6763 97.43436 228.0503 C 97.49754 228.2522 97.60604 228.9403 97.67546 229.5795 C 97.86505 231.3249 98.48628 234.0256 99.23727 236.3691 C 101.2649 242.6964 104.7895 246.7084 109.0039 247.4864 C 110.0359 247.6769 110.721 247.6494 111.977 247.3673 Z M 194.172 239.4763 C 195.5598 239.0908 196.4499 238.5708 197.4946 237.5354 C 198.1924 236.8439 198.5348 236.3838 198.866 235.6928 C 199.4853 234.4011 199.5975 233.7447 199.5322 231.7966 C 199.4857 230.4058 199.4203 229.9579 199.1374 229.0901 C 197.8674 225.1951 194.899 221.6476 190.3885 218.6344 C 186.8665 216.2816 183.4314 214.7733 176.7516 212.6468 C 175.5408 212.2613 174.2269 211.8374 173.8317 211.7048 C 173.4365 211.5721 173.0906 211.4862 173.063 211.5138 C 173.0057 211.5711 173.5877 214.4382 174.0563 216.4068 C 176.4088 226.2902 180.4402 233.8083 185.3217 237.4155 C 188.0328 239.4188 191.4852 240.2227 194.172 239.4763 Z M 116.1505 221.9401 C 117.7292 221.7502 120.2971 221.199 120.4866 221.0094 C 120.5706 220.9253 120.5191 220.6197 120.327 220.0637 C 118.0415 213.446 114.252 208.9964 109.5356 207.3922 C 105.8459 206.1373 101.038 207.3002 98.4113 210.0828 C 96.59744 212.0044 96.29114 213.7283 97.38007 215.8869 C 98.16176 217.4364 99.74307 218.774 102.1468 219.9187 C 104.4359 221.0089 106.8215 221.7121 109.118 221.9736 C 110.6416 222.1471 114.5867 222.1283 116.1505 221.9401 Z M 141.0714 204.2866 C 143.0002 201.2027 145.2274 196.6226 146.7674 192.573 C 148.9186 186.9163 150.6804 179.8449 151.522 173.4887 C 151.9225 170.4637 151.9224 165.7025 151.5216 163.5795 C 151.0316 160.9833 150.3199 159.2823 149.3495 158.3875 C 148.6302 157.7244 148.3279 157.6667 147.6507 158.0637 C 145.0257 159.6025 142.5006 166.5561 141.4052 175.2626 C 141.2995 176.1036 141.1887 176.8743 141.1592 176.9753 C 141.1021 177.1708 140.6983 181.6987 140.4664 184.7435 C 140.3841 185.8242 140.3255 189.5959 140.3239 193.9187 C 140.3211 201.1263 140.4193 204.8677 140.6111 204.8677 C 140.6643 204.8677 140.8715 204.6062 141.0714 204.2866 Z M 172.0482 190.2181 C 175.3127 186.723 177.6158 183.3463 179.4955 179.2996 C 180.8506 176.3822 181.8604 173.0833 182.1917 170.4915 C 182.3451 169.2906 182.344 166.4949 182.1896 165.4265 C 181.8586 163.136 180.903 161.1241 179.446 159.6498 C 178.3341 158.5248 177.679 158.1356 176.8972 158.1356 C 174.264 158.1356 171.9031 165.0581 171.1815 174.8955 C 170.9923 177.4737 170.8712 191.1662 171.0376 191.1662 C 171.1064 191.1662 171.5612 190.7395 172.0482 190.2181 Z M 51.45213 190.793 C 55.41386 190.3738 58.00634 189.6493 61.30983 188.0379 C 65.69058 185.901 69.32967 182.5648 70.99077 179.1625 C 71.62241 177.8688 71.79791 177.1701 71.7294 176.2225 C 71.6823 175.5711 71.62457 175.4257 71.29681 175.1328 C 70.8231 174.7094 69.76449 174.473 68.82077 174.5798 C 62.58363 175.2856 53.94986 181.4054 47.85939 189.4377 C 47.27927 190.2028 46.80462 190.8838 46.80462 190.951 C 46.80462 191.0834 49.60892 190.988 51.45213 190.793 Z M 203.4472 180.8611 C 207.8084 177.0262 211.0765 172.5484 211.0518 170.4417 C 211.039 169.3474 210.2632 168.5331 209.2356 168.5353 C 206.5831 168.5409 203.6256 173.0452 202.4488 178.8714 C 202.0748 180.7232 201.9285 182.0388 202.1037 181.9759 C 202.1742 181.9506 202.7788 181.4489 203.4472 180.8611 Z M 235.9769 167.9624 C 238.788 166.2791 241.0021 164.8137 242.2026 163.8419 C 243.2946 162.958 244.7141 161.499 245.274 160.685 C 245.6814 160.0927 246.1586 158.8227 246.1586 158.3309 C 246.1586 157.1266 244.8169 156.0559 243.3078 156.0559 C 241.7212 156.0559 240.215 156.8498 238.4465 158.6182 C 236.556 160.5086 235.1483 162.8563 234.1146 165.8427 C 233.6337 167.2323 233.0686 169.4683 233.1722 169.572 C 233.2074 169.6072 233.3644 169.5519 233.5211 169.4492 C 233.6779 169.3465 234.783 168.6774 235.9769 167.9624 Z M 237.7198 263.0144 C 235.5349 262.7388 231.9642 261.6452 225.4283 259.2498 C 221.0468 257.644 218.0335 255.9448 215.5849 253.6992 L 214.792 252.972 L 214.8039 252.2553 C 214.8134 251.6834 215.1287 250.5995 216.365 246.8899 C 217.8613 242.4 223.1712 226.3494 227.7172 212.5748 C 228.9274 208.9078 230.0082 205.7699 230.119 205.6017 C 230.2578 205.3911 230.3204 205.0294 230.3204 204.4395 C 230.3204 203.7734 230.4114 203.3336 230.7301 202.4594 C 231.4069 200.6027 232.2502 199.8699 233.8413 199.7557 C 234.5267 199.7065 234.6954 199.651 234.8084 199.4376 C 235.1051 198.8777 237.1993 196.7466 237.7809 196.4128 C 238.2822 196.1251 238.5366 196.0617 239.1923 196.0607 C 239.6322 196.0601 240.3201 196.1454 240.7211 196.2505 C 241.122 196.3555 243.4863 196.9585 245.9752 197.5907 C 251.0185 198.8716 251.7998 199.1102 254.781 200.2796 C 255.9245 200.7281 257.3503 201.2869 257.9494 201.5212 C 261.3282 202.8432 261.9835 203.6034 262.6603 206.9857 C 262.8598 207.9824 262.9956 208.869 262.9623 208.9559 C 262.9289 209.0429 263.1459 209.3655 263.4446 209.6728 C 264.1888 210.4388 264.4367 211.1289 264.3451 212.1797 C 264.3057 212.6325 264.1582 213.3333 264.0175 213.737 C 263.8767 214.1407 263.7139 214.8013 263.6557 215.2051 C 263.557 215.8892 262.8738 217.4995 260.9826 221.5053 C 260.7126 222.0773 259.9565 223.7012 259.3023 225.1142 C 258.6482 226.5272 257.5761 228.8393 256.9199 230.2523 C 256.2638 231.6653 255.1923 233.9774 254.539 235.3904 C 253.8856 236.8034 253.13 238.4274 252.86 238.9993 C 252.59 239.5712 251.9139 241.03 251.3576 242.2412 C 250.8013 243.4523 250.0586 245.0488 249.7072 245.7889 C 249.3559 246.529 248.8317 247.6576 248.5426 248.2968 C 248.2534 248.936 247.7433 250.037 247.4089 250.7435 C 247.0744 251.45 246.3569 252.9914 245.8142 254.1689 C 241.9863 262.474 242.0968 262.2772 241.1773 262.4299 C 240.9237 262.4721 240.4685 262.6066 240.1658 262.7289 C 239.5761 262.9672 238.4174 263.1024 237.7198 263.0144 Z M 239.7413 259.5316 C 239.8269 259.4417 240.3423 258.3946 240.8866 257.2048 C 241.4309 256.0149 242.1576 254.446 242.5015 253.7182 C 242.8453 252.9904 243.3626 251.872 243.6509 251.2328 C 243.9392 250.5936 244.6487 249.0648 245.2275 247.8354 C 245.8063 246.6059 246.3632 245.4007 246.4649 245.1571 L 246.65 244.7141 L 245.3342 244.7948 C 241.8141 245.0106 237.1698 244.1546 232.9499 242.5123 C 230.0332 241.3772 226.278 239.1964 224.1817 237.4202 C 223.6979 237.0103 223.2576 236.6764 223.2033 236.6782 C 223.149 236.6801 222.96 237.1342 222.7834 237.6875 C 222.6069 238.2408 221.5199 241.5457 220.3679 245.0319 C 219.216 248.5181 218.2735 251.4734 218.2735 251.5992 C 218.2735 252.3048 222.5049 254.728 226.0398 256.0468 C 229.777 257.4411 234.1564 258.9181 235.6406 259.2846 C 236.4814 259.4923 237.2795 259.6895 237.414 259.7229 C 237.8825 259.839 239.5816 259.6992 239.7413 259.5316 Z M 246.6479 241.4354 C 248.3165 241.1745 248.3355 241.1634 248.7822 240.1846 C 249.1553 239.3668 250.0433 237.4546 252.7756 231.5848 C 253.3741 230.2992 253.8637 229.1925 253.8637 229.1255 C 253.8637 229.0576 253.2831 228.9666 252.549 228.9194 C 244.532 228.4051 234.2698 224.3363 229.448 219.7601 C 229.17 219.4963 228.9131 219.328 228.8771 219.3863 C 228.8411 219.4445 227.8963 222.271 226.7776 225.6674 C 225.6589 229.0638 224.6339 232.1427 224.4998 232.5094 L 224.256 233.1762 L 225.0868 233.9605 C 229.45 238.0798 236.6986 241.1762 242.8565 241.5513 C 244.3678 241.6433 245.5491 241.6072 246.6479 241.4354 Z M 254.9627 225.6863 C 255.6026 225.5898 255.5352 225.6941 256.9171 222.6675 C 257.4086 221.591 258.2741 219.725 258.8403 218.5209 C 259.4066 217.3167 259.8256 216.292 259.7715 216.2437 C 259.7174 216.1954 258.4623 215.7657 256.9825 215.2888 C 254.2536 214.4096 253.6865 214.2394 251.1731 213.5461 C 246.9122 212.3706 242.1369 210.7418 238.2465 209.1368 C 235.9253 208.1792 233.0395 207.19 232.913 207.3087 C 232.8229 207.393 230.4003 214.5633 230.2241 215.2669 C 230.1635 215.5087 230.2743 215.7464 230.7492 216.3933 C 232.67 219.0098 238.2985 222.1693 244.5076 224.1164 C 248.3844 225.3322 252.8566 226.0037 254.9627 225.6863 Z M 261.052 212.5983 C 261.2096 212.1237 261.2067 212.0488 261.0222 211.8449 C 260.7285 211.5204 258.8654 210.7525 256.7379 210.0793 C 253.3667 209.0126 251.6223 208.3973 248.7271 207.2537 C 245.2635 205.8856 243.5795 205.3108 238.2745 203.6859 C 237.1314 203.3357 235.5795 203.0091 234.7611 202.9463 L 233.9428 202.8836 L 233.7483 203.3492 C 233.6413 203.6054 233.577 203.8756 233.6055 203.9497 C 233.6339 204.0238 234.2548 204.2698 234.9852 204.4964 C 235.7156 204.7231 237.0562 205.2099 237.9644 205.5783 C 243.7382 207.9204 247.4109 209.1921 252.8242 210.7235 C 255.6948 211.5356 256.5401 211.7996 258.5113 212.5 C 259.5539 212.8704 260.5127 213.1627 260.642 213.1494 C 260.8014 213.1331 260.9333 212.9558 261.052 212.5983 Z M 259.4897 207.3816 C 259.4897 206.9992 259.2031 205.896 259.0384 205.6446 C 258.8278 205.323 257.9693 204.9027 255.9429 204.129 C 255.1021 203.808 253.6436 203.2449 252.7019 202.8776 C 251.7602 202.5104 250.4943 202.0687 249.8889 201.8961 C 247.6092 201.246 247.2642 201.1531 244.9968 200.5789 C 243.7187 200.2553 241.9096 199.7893 240.9765 199.5433 L 239.28 199.0961 L 238.7432 199.6231 C 238.448 199.9129 238.2231 200.2003 238.2436 200.2617 C 238.264 200.3231 238.6361 200.479 239.0704 200.6081 C 243.8768 202.0369 246.6174 202.9692 250.1335 204.3717 C 252.0632 205.1414 255.2382 206.2626 257.2271 206.8766 C 258.0343 207.1258 258.8047 207.3775 258.9393 207.4361 C 259.3083 207.5966 259.4897 207.5787 259.4897 207.3816 Z M 110.4825 196.6058 C 108.2221 196.0405 105.5006 194.0385 103.5037 191.472 C 99.95527 186.9113 97.79494 180.5804 96.57407 171.1643 C 95.90861 166.032 95.69307 156.9818 96.10065 151.2848 C 96.32272 148.1807 96.40341 146.1467 96.30446 146.1467 C 96.25166 146.1467 95.78343 146.4689 95.26392 146.8627 C 91.26212 149.8962 86.38763 152.8935 81.11063 155.5654 C 72.21059 160.0717 64.46162 162.5067 55.99817 163.4565 C 50.00186 164.1295 43.53133 163.7029 37.26497 162.2214 C 36.2896 161.9908 35.35399 161.7521 35.18582 161.691 C 35.01765 161.6299 34.21963 161.3758 33.41243 161.1264 C 32.02629 160.698 29.74311 159.8248 28.90212 159.4014 C 28.41913 159.1583 27.75134 158.5336 27.54891 158.1356 C 26.87884 156.8182 27.64727 155.1259 29.10039 154.719 C 29.82805 154.5152 30.25239 154.5971 31.87187 155.254 C 35.99144 156.9248 39.84024 157.8687 44.90892 158.4511 C 54.59478 159.564 64.68908 157.6656 75.66814 152.6662 C 82.2553 149.6667 88.55016 145.8201 94.45908 141.1833 C 97.08246 139.1247 97.02355 139.1904 97.12074 138.2171 C 97.34068 136.0142 98.24657 130.1023 98.72685 127.7352 C 99.56715 123.5939 100.3434 120.6554 101.5348 117.1053 C 104.0485 109.6151 107.7264 104.8631 111.8204 103.8157 C 113.0133 103.5105 114.0255 103.5091 115.1149 103.8111 C 117.4656 104.4626 119.0887 106.2557 119.8347 109.025 C 120.0472 109.8139 120.0986 110.3648 120.1082 111.954 C 120.115 113.0713 120.0515 114.3051 119.9604 114.8289 C 119.4886 117.5418 118.4001 120.4608 116.6635 123.6704 C 113.8841 128.8073 108.7859 135.1597 103.6418 139.8956 L 101.861 141.5351 L 101.734 142.5258 C 101.4768 144.5327 101.4428 145.324 101.6183 145.2179 C 101.9825 144.9978 104.0617 143.4769 105.2145 142.5874 C 110.8547 138.2354 114.8486 133.9824 120.8278 125.9614 C 122.9651 123.0943 123.7101 122.4964 125.151 122.4923 C 126.6927 122.4878 127.734 123.5361 128.1718 125.5332 C 128.4158 126.6462 128.4791 127.3288 128.6254 130.4266 C 128.7493 133.0512 128.8209 133.8799 129.2383 137.5221 C 129.7866 142.3058 130.5972 144.9733 131.9542 146.4584 C 133.0469 147.6543 134.2269 147.9183 135.7483 147.3072 C 137.7641 146.4975 140.3396 143.7674 142.0716 140.6044 C 144.2175 136.6855 146.0127 130.7259 146.3842 126.2881 C 146.544 124.3785 146.544 124.3786 145.6866 124.3698 C 145.4176 124.367 144.8365 124.2416 144.3954 124.0912 C 141.1402 122.9812 139.4922 120.0829 140.1329 116.5946 C 140.4227 115.0167 141.5966 113.3668 142.8737 112.7423 C 143.3916 112.4891 143.663 112.4434 144.6471 112.4435 C 145.6944 112.4436 145.8808 112.4798 146.5373 112.8105 C 147.9662 113.5302 149.311 115.1911 150.1774 117.3062 C 150.391 117.8276 150.6226 118.2543 150.6922 118.2543 C 150.8948 118.2543 152.2048 117.4205 153.3306 116.5749 C 154.9398 115.3664 157.0197 113.4299 159.4592 110.8687 C 164.5342 105.5405 165.6013 104.5982 167.0899 104.1298 C 169.3285 103.4255 171.3592 105.005 171.8014 107.7946 C 171.8909 108.3589 171.9334 111.1544 171.9261 115.9911 C 171.916 122.6808 171.9379 123.5426 172.174 125.7167 C 172.4545 128.3014 172.9297 130.4356 173.461 131.4968 C 174.5201 133.6127 175.5086 133.775 177.29 132.1252 C 181.2279 128.4784 185.725 118.8325 189.8882 105.1032 C 191.7922 98.82447 192.1715 97.76151 192.8988 96.66547 C 194.3927 94.41419 196.9442 94.27676 198.858 96.34451 C 200.0835 97.66846 202.6458 101.9101 205.9968 108.1616 C 206.3935 108.9017 206.7726 109.5004 206.8393 109.492 C 207.0796 109.4618 211.3254 100.8453 212.4682 98.06892 C 214.6062 92.87444 216.0398 88.85588 217.3565 84.36668 C 218.1731 81.58241 219.1658 77.63427 219.0727 77.54114 C 219.0386 77.50699 218.0055 77.88113 216.7769 78.37256 C 208.5464 81.66492 203.8033 82.97416 198.7827 83.33946 C 197.6792 83.41977 194.9486 83.07254 193.8741 82.7153 C 191.8998 82.05892 190.2689 80.83443 189.5286 79.4527 C 189.1642 78.77253 189.1136 78.56759 189.1111 77.76125 C 189.109 77.05065 189.1684 76.73076 189.3743 76.34282 C 189.6669 75.79171 190.3703 75.11723 190.8381 74.93933 C 191.3468 74.74586 192.2367 74.80999 192.7951 75.08037 C 193.5277 75.43513 193.8673 75.94685 194.1132 77.06667 C 194.214 77.52579 195.0983 77.93119 196.5502 78.18388 C 197.9676 78.43057 198.4722 78.4228 200.6323 78.12105 C 204.422 77.59164 208.7942 76.21778 216.011 73.28871 C 216.9527 72.90648 217.9709 72.49496 218.2735 72.37419 C 218.5762 72.25343 219.1861 71.99129 219.6287 71.79164 L 220.4336 71.42865 L 220.5706 70.5273 C 221.0636 67.28394 221.4944 64.2179 221.6942 62.52987 C 222.1131 58.99284 222.4494 58.12392 223.6436 57.49347 C 224.9639 56.79641 226.6759 57.44172 227.2702 58.86043 C 227.595 59.63607 227.825 61.246 228.0593 64.38525 C 228.193 66.17697 228.3024 67.71751 228.3024 67.80867 C 228.3024 68.05913 228.5202 68.01492 229.6515 67.53479 C 231.5293 66.73785 233.9483 65.77357 236.8636 64.65984 C 238.4444 64.05593 239.9304 63.48272 240.1658 63.38604 C 240.566 63.22171 245.5102 61.38469 248.1155 60.43235 C 248.7545 60.19876 249.5526 59.90055 249.8889 59.76965 C 251.7755 59.03544 252.9892 58.88504 253.8842 59.27456 C 255.9324 60.16591 255.9781 63.02594 253.9578 63.87033 C 253.7086 63.97447 253.3564 64.05968 253.1752 64.05968 C 252.8524 64.05968 250.9767 64.65792 249.522 65.2249 C 249.1184 65.3822 246.717 66.28362 244.1856 67.22809 C 241.6542 68.17254 239.4527 69.00034 239.2935 69.06766 C 239.1342 69.13498 238.4811 69.38852 237.8421 69.63109 C 236.1137 70.28716 233.6643 71.27573 231.0542 72.37065 L 228.7305 73.34547 L 228.7656 75.0946 C 228.785 76.05662 228.8517 77.55939 228.9138 78.4341 C 228.9759 79.30879 229.0594 82.17144 229.0993 84.79553 C 229.2437 94.29792 229.6355 98.77729 230.7041 103.1458 C 231.4739 106.293 232.7862 109.3761 234.1507 111.2433 C 235.0057 112.4133 236.2971 113.5909 237.2503 114.0697 C 239.3383 115.1184 241.6823 114.7729 243.9572 113.0811 C 246.003 111.5597 247.9792 109.2311 251.9224 103.6964 C 253.3356 101.7127 253.7629 101.1068 255.029 99.29228 C 255.2872 98.92222 255.9374 97.95882 256.4739 97.1514 C 257.6506 95.38036 257.8235 95.17956 258.4457 94.86044 C 259.0302 94.56073 260.0328 94.5386 260.5646 94.81366 C 261.0685 95.07429 261.7689 95.91932 261.8604 96.37694 C 262.1274 97.71227 262.026 97.92368 259.0549 102.2283 C 252.6904 111.4495 249.9947 114.7743 247.1371 116.9275 C 245.7678 117.9593 243.8747 118.9672 242.673 119.3044 C 241.5404 119.6222 238.5966 119.6836 237.3877 119.4145 C 235.3971 118.9716 233.5341 117.8768 231.783 116.1211 C 229.0549 113.3858 227.0701 109.4184 225.8119 104.1857 C 225.5318 103.0208 225.3192 101.9334 224.9984 100.0263 C 224.8951 99.41168 224.6509 97.14772 224.3849 94.33769 C 224.3275 93.73214 224.2184 90.18136 224.1423 86.44705 C 224.0662 82.71277 223.9755 79.57488 223.9408 79.47395 C 223.906 79.37302 223.6138 80.30889 223.2914 81.55365 C 220.476 92.42423 217.1694 100.8311 211.5591 111.383 C 211.0106 112.4147 210.3144 113.6949 210.012 114.228 C 209.4888 115.1503 209.4707 115.2138 209.6391 115.5396 C 209.9518 116.1444 210.9392 118.6329 211.5536 120.3645 C 215.605 131.7827 215.218 141.0124 210.3582 148.8707 C 208.2316 152.3096 205.3678 155.0947 202.4353 156.5757 C 199.0721 158.2742 194.974 158.4587 192.2379 157.0349 C 190.2061 155.9775 188.9192 154.3454 188.1867 151.8965 C 187.9627 151.1474 187.9017 150.586 187.8548 148.8381 C 187.8018 146.8642 187.8229 146.5732 188.1251 145.1069 C 189.0827 140.4612 191.1458 136.0631 196.4482 127.364 C 199.4164 122.4944 202.4418 117.455 203.149 116.2026 L 203.8585 114.9462 L 202.8545 112.9608 C 201.3084 109.903 197.2543 102.6497 196.5553 101.6904 L 196.3012 101.3418 L 196.1659 101.6933 C 196.0915 101.8866 195.6908 103.1734 195.2755 104.5527 C 192.3002 114.4333 189.9156 120.7977 187.0711 126.4507 C 183.8296 132.8924 180.8406 136.5044 177.702 137.7725 C 174.0069 139.2654 170.3042 137.2721 168.6133 132.8798 C 168.0775 131.4881 167.5505 129.2711 167.3452 127.5453 C 166.9139 123.9207 166.8707 122.7748 166.9338 116.6311 C 166.9683 113.2819 166.9559 110.5167 166.9064 110.4861 C 166.8569 110.4555 165.6501 111.6541 164.2246 113.1496 C 158.8936 118.7425 156.0011 121.1843 152.6949 122.883 L 151.5572 123.4675 L 151.5273 124.2557 C 151.3692 128.4291 150.7685 131.7088 149.3645 136.064 C 146.6159 144.5904 142.1561 150.3672 136.8809 152.2344 C 135.5956 152.6894 133.4997 152.7598 132.2732 152.3893 C 128.8885 151.367 126.5448 148.5599 125.3246 144.067 C 124.6065 141.4227 124.1439 138.0663 123.7235 132.45 C 123.6557 131.5443 123.5809 130.784 123.5574 130.7604 C 123.5338 130.7368 123.2496 131.0649 122.9259 131.4896 C 116.9717 139.2998 111.3032 144.7052 103.5264 149.9887 C 103.1417 150.2501 102.8486 150.499 102.875 150.5418 C 102.9015 150.5846 103.2438 150.8369 103.6357 151.1024 C 104.0276 151.368 104.5408 151.7293 104.7763 151.9055 C 105.0117 152.0817 105.7822 152.6561 106.4885 153.182 C 111.6141 156.9982 115.2041 160.9058 118.0364 165.7517 C 118.8047 167.0662 119.8484 169.2245 120.358 170.5526 C 120.5387 171.0236 120.7363 171.5293 120.7972 171.6763 C 121.3213 172.9426 122.185 176.7557 122.3855 178.6879 C 122.546 180.2355 122.5419 183.9832 122.3782 185.3552 C 121.9242 189.1597 120.4653 192.3904 118.2576 194.4799 C 117.2043 195.4769 116.3315 196.0444 115.2249 196.452 C 114.2871 196.7974 111.5976 196.8846 110.4825 196.6058 Z M 113.9698 191.5225 C 115.2549 190.8667 116.4146 189.0278 117.0874 186.5786 C 117.4147 185.3875 117.4237 185.268 117.4291 182.0522 C 117.4344 178.88 117.4209 178.6837 117.0869 177.0976 C 115.6384 170.2193 111.8666 164.1193 106.0038 159.1732 C 104.7335 158.1014 101.2313 155.4442 101.0891 155.4442 C 101.04 155.4442 100.9605 155.7057 100.9124 156.0253 C 100.7988 156.7804 100.9509 164.4416 101.1084 165.8894 C 101.1751 166.5029 101.3103 167.9408 101.409 169.0846 C 101.6089 171.4023 101.8007 172.7191 102.3447 175.5072 C 103.652 182.2082 105.6485 186.7099 108.612 189.6391 C 110.7189 191.7216 112.4129 192.317 113.9698 191.5225 Z M 198.1504 152.8047 C 200.3612 152.3582 202.8615 150.6048 204.7534 148.1741 C 206.9076 145.4063 208.2082 142.5561 208.9408 138.9973 C 209.2423 137.5326 209.2695 137.1657 209.2682 134.586 C 209.267 132.0832 209.2308 131.5695 208.941 129.9373 C 208.4204 127.0052 207.3182 123.0097 206.5007 121.0912 L 206.3282 120.6862 L 204.6115 123.5379 C 203.6673 125.1063 201.9059 128.0135 200.6972 129.9985 C 194.7884 139.7018 192.8405 144.2437 192.8176 148.371 C 192.8077 150.1559 193.0537 151.146 193.7028 151.9337 C 194.1631 152.4922 194.5928 152.7238 195.5703 152.9399 C 196.3502 153.1124 196.724 153.0928 198.1504 152.8047 Z M 103.9424 132.5369 C 108.1161 127.9485 110.7194 124.3396 112.7891 120.2728 C 114.8114 116.299 115.588 112.5859 114.9294 110.0395 C 114.4588 108.2202 112.9834 108.1679 111.1271 109.9048 C 108.5928 112.2762 106.5326 116.8312 104.6395 124.2487 C 103.9482 126.9576 102.8194 132.6129 102.8194 133.3679 C 102.8194 133.699 103.0212 133.5496 103.9424 132.5369 Z M 145.2101 118.4145 C 145.0721 118.1598 145.0226 118.1283 145.0189 118.2929 C 145.0124 118.5862 145.2851 119.0922 145.348 118.9035 C 145.3746 118.8236 145.3126 118.6036 145.2101 118.4145 Z M 71.93523 130.4785 C 71.59742 130.4219 70.93698 130.2314 70.46759 130.0551 C 67.28284 128.8597 65.40361 126.3259 65.00284 122.687 C 64.29335 116.245 68.86401 106.7934 79.85226 91.98004 C 80.31504 91.35618 80.66298 90.79606 80.62546 90.73532 C 80.44524 90.44369 78.96245 89.45533 78.07172 89.03317 C 76.9142 88.48455 75.11222 88.03741 74.05876 88.03741 C 71.45728 88.03741 68.65621 89.64409 65.39273 93.00816 C 62.57739 95.91028 60.25685 99.56527 59.30587 102.5953 C 58.79534 104.222 58.7249 104.9753 58.98151 106.0641 C 59.18863 106.9428 59.1877 106.9668 58.91198 107.864 C 58.55114 109.0382 58.08133 109.7201 57.40882 110.0457 C 56.41387 110.5275 55.26379 110.308 54.48563 109.4879 C 53.98228 108.9574 53.77615 108.3354 53.77372 107.3398 C 53.77044 105.9939 53.50145 103.8103 52.62417 98.00775 C 52.30906 95.92354 51.40543 89.62988 51.2673 88.55734 C 51.2218 88.20409 51.16909 87.91508 51.15018 87.91508 C 51.13127 87.91508 50.5723 88.16937 49.90805 88.48016 C 45.50064 90.54233 41.57334 91.43372 37.44843 91.30815 C 32.77401 91.16587 29.44384 89.87794 28.94337 88.01891 C 28.54975 86.55671 29.51766 85.17528 31.04481 85.01965 C 31.61078 84.96198 31.84992 85.01502 32.79782 85.40839 C 36.34168 86.87903 41.45938 86.604 46.0708 84.69508 C 47.55386 84.08117 50.07942 82.83949 50.35833 82.58713 C 50.52592 82.43552 50.53098 82.26443 50.4006 81.15849 C 49.7904 75.98216 49.71207 66.95734 50.24265 62.95867 C 51.28202 55.12557 54.14538 49.61485 58.52063 47.0272 C 61.15652 45.46826 64.67165 45.11019 67.56689 46.10571 C 71.26006 47.3756 73.50084 49.95586 74.46394 54.04765 C 74.87766 55.80544 74.85504 58.78309 74.41154 60.94014 C 73.29694 66.36125 70.39789 71.66299 65.66447 76.93654 C 63.35731 79.50699 59.94076 82.41972 56.72063 84.56154 C 56.24456 84.87819 55.85545 85.19801 55.85596 85.27225 C 55.85648 85.34648 55.91306 85.75341 55.9817 86.17654 C 56.05035 86.59967 56.24144 87.94843 56.40635 89.17377 C 56.97184 93.37563 57.19846 94.90845 57.27174 95.02707 C 57.31211 95.09239 57.67556 94.66123 58.0794 94.06892 C 59.34138 92.21806 60.59575 90.72903 62.38739 88.95494 C 65.73612 85.63903 68.63903 83.90865 71.91353 83.27664 C 73.56845 82.95722 74.525 82.95564 76.26772 83.26953 C 78.69748 83.70716 80.9368 84.66216 82.77278 86.04369 C 83.25404 86.40582 83.69064 86.68603 83.743 86.66635 C 83.79536 86.64667 84.96001 85.17171 86.33113 83.38867 C 92.12807 75.85014 93.08266 74.74122 94.37796 74.04079 C 94.88039 73.7691 95.24943 73.67091 95.93292 73.62703 C 96.7535 73.57436 96.89571 73.60229 97.61847 73.95821 C 98.05887 74.17506 98.57449 74.54726 98.78485 74.80014 C 99.8647 76.09828 100.556 78.60593 101.4727 84.55087 C 102.4541 90.91481 103.2943 93.71793 104.6466 95.13991 C 105.0622 95.57686 105.1827 95.63947 105.4744 95.56993 C 107.3398 95.12535 109.9061 92.43764 111.5077 89.25134 C 113.6965 84.89693 115.1875 79.20575 116.329 70.8493 C 116.6463 68.5265 116.8454 67.72309 117.2384 67.18047 C 118.2142 65.83301 120.1991 65.77511 121.2605 67.06313 C 121.6783 67.57018 122.0476 68.73245 122.3273 70.42113 C 123.4167 76.99681 124.7885 81.02929 126.6029 82.98955 C 127.2327 83.66996 127.637 83.98061 128.354 84.3349 L 129.2862 84.79553 L 130.8821 84.79553 C 132.3678 84.79553 132.5275 84.7723 133.1967 84.45879 C 137.1763 82.59422 140.2521 77.053 142.2448 68.15791 C 142.529 66.88942 143.0777 63.46269 143.2341 61.97998 C 143.3588 60.79842 143.6677 55.59022 143.6682 54.6622 C 143.6686 53.86674 143.6449 53.77414 143.4546 53.83092 C 139.203 55.10025 137.6194 55.51283 135.2298 55.97372 C 132.6472 56.47184 129.4 56.62508 127.3195 56.34703 C 123.5677 55.84561 120.2094 53.81702 119.0381 51.34468 C 118.6913 50.6125 118.6577 50.43365 118.6578 49.31827 C 118.6579 48.22955 118.6937 48.02695 118.9836 47.47743 C 119.608 46.29388 120.6018 45.59242 121.6541 45.59242 C 122.7226 45.59242 123.7032 46.30323 123.9725 47.27295 C 124.1455 47.89598 124.1333 48.14793 123.894 48.88894 L 123.6878 49.52757 L 123.9857 49.76545 C 124.6342 50.28325 125.2455 50.62405 126.0305 50.90552 C 127.4003 51.39666 128.3386 51.49926 130.7589 51.42252 C 133.0524 51.3498 134.6051 51.09729 137.737 50.28771 C 139.4291 49.85028 143.3305 48.63891 143.5132 48.49421 C 143.6844 48.35851 143.6582 47.84322 143.287 44.05785 C 142.8752 39.8577 142.8768 39.90226 143.1159 39.27618 C 143.4464 38.41038 143.9526 37.91087 144.7279 37.68544 C 145.5591 37.44374 146.3564 37.59943 146.9984 38.12877 C 147.8273 38.81218 148.0892 39.78568 148.3141 43.018 C 148.473 45.30376 148.6755 46.68811 148.8509 46.68787 C 148.9268 46.68776 150.4473 46.18902 152.2299 45.57956 C 155.019 44.62598 159.7634 43.11241 164.1544 41.77538 C 167.4666 40.76683 169.3339 40.18035 169.7523 40.01715 C 171.0849 39.49731 172.5896 40.18005 173.026 41.50254 C 173.2202 42.09137 173.1008 43.04423 172.7644 43.58865 C 172.2146 44.47836 171.8182 44.65339 167.0286 46.12105 C 159.63 48.38814 150.4816 51.35639 149.7532 51.7261 C 149.4702 51.86981 149.4774 52.00315 149.9104 54.64161 C 151.8936 66.72644 154.6651 73.32606 158.5201 75.1436 C 161.074 76.34772 163.6128 75.38937 165.9738 72.3299 C 167.679 70.12036 168.9219 67.74132 171.2299 62.26966 C 171.6027 61.38607 172.3351 59.7387 172.8576 58.60883 C 173.6352 56.92734 173.9212 56.43817 174.4335 55.9133 C 175.4216 54.90088 176.4979 54.74733 177.6412 55.45564 C 178.8092 56.17927 179.1017 57.62574 178.3344 58.88284 C 177.7398 59.85689 176.8712 61.75605 174.8478 66.50639 C 170.9814 75.58302 166.9274 79.95419 161.7971 80.57814 C 157.1218 81.14675 152.836 78.38667 149.9716 72.96255 C 149.3172 71.72348 148.5566 69.94485 148.0113 68.37875 L 147.6019 67.20294 L 147.4733 67.68044 C 147.4027 67.94305 147.237 68.68091 147.1052 69.32011 C 146.7314 71.13348 145.9407 73.95151 145.2818 75.81882 C 142.7161 83.09 139.2509 87.45055 134.5978 89.26353 C 132.5009 90.08052 129.3209 90.07735 127.0966 89.25606 C 125.2127 88.56046 123.1093 86.90267 121.9113 85.16917 C 121.2439 84.20354 120.0212 81.86604 119.8761 81.2784 C 119.7511 80.77223 119.6156 80.87038 119.4538 81.58423 C 119.245 82.50521 118.5075 85.10793 118.1105 86.32472 C 115.5605 94.13972 111.0588 99.55459 106.3547 100.4652 C 105.385 100.6529 105.2293 100.6536 104.3451 100.4732 C 103.8179 100.3657 103.0999 100.1326 102.7494 99.95522 C 100.8047 98.97102 99.2068 96.60886 98.12184 93.11433 C 97.54953 91.27107 97.18003 89.42661 96.39404 84.4897 C 95.96217 81.77716 95.63151 80.06466 95.51759 79.95071 C 95.46337 79.89648 95.03535 80.33127 94.56648 80.91695 C 93.27047 82.53583 89.98557 86.75928 88.42719 88.81039 L 87.03758 90.63936 L 87.30353 91.08167 C 89.29282 94.39001 90.56499 97.88408 91.18379 101.739 C 92.02013 106.949 91.29285 112.019 88.97295 117.1513 C 84.89511 126.1726 78.07411 131.5081 71.93523 130.4785 Z M 75.9203 125.0184 C 78.89789 123.6132 81.84772 120.3442 83.95595 116.1134 C 85.02222 113.9735 85.62695 112.2249 86.13954 109.7994 C 86.41864 108.4788 86.4606 107.9851 86.46579 105.9595 C 86.47227 103.4318 86.25853 101.8375 85.61288 99.59811 C 85.06496 97.69768 84.00131 95.13287 83.76108 95.13287 C 83.64862 95.13287 83.59273 95.20658 81.50096 98.1138 C 75.30869 106.7201 71.62772 113.3694 70.31949 118.3121 C 70.0447 119.3503 69.99375 119.802 69.98793 121.2515 C 69.98169 122.8036 70.00844 123.0248 70.27327 123.611 C 70.62883 124.3981 71.46183 125.1639 72.23254 125.4122 C 72.60777 125.5331 73.14138 125.5786 73.84116 125.5493 C 74.75771 125.5109 75.017 125.4447 75.9203 125.0184 Z M 56.72606 78.37309 C 62.48252 73.89097 66.8771 68.1732 68.76147 62.71399 C 69.48112 60.62906 69.73698 59.19402 69.73206 57.27007 C 69.72727 55.39668 69.55669 54.54673 68.93298 53.28909 C 68.22455 51.86058 66.7066 50.85135 64.88882 50.6003 C 60.49437 49.99337 57.03935 53.95654 55.60814 61.24597 C 55.06617 64.00635 54.67152 69.1162 54.79696 71.74908 C 55.05809 77.23013 55.21769 79.35161 55.36884 79.35161 C 55.42411 79.35161 56.03485 78.91128 56.72606 78.37309 Z M 126.4126 116.624 C 124.5886 115.661 124.351 113.2557 125.9171 111.6072 C 126.578 110.9116 127.2041 110.6283 128.0863 110.6257 C 130.7354 110.6181 132.1187 114.3105 130.1233 116.0629 C 129.4275 116.674 128.8021 116.9028 127.8191 116.9059 C 127.1435 116.908 126.8324 116.8456 126.4126 116.624 Z M 234.6316 236.2981 C 234.5139 236.2295 234.4176 236.0521 234.4176 235.9039 C 234.4176 235.4118 233.9383 233.9482 233.3496 232.6423 C 232.8097 231.4447 232.7684 231.2825 232.7675 230.3551 C 232.7666 229.4408 232.7977 229.3121 233.1375 228.8259 C 233.821 227.8478 235.2413 227.3387 236.6831 227.555 C 237.152 227.6253 237.3697 227.7502 237.8298 228.213 C 238.1663 228.5515 238.4687 229.0014 238.5718 229.3172 C 238.6676 229.6103 238.8056 229.873 238.8785 229.901 C 238.9514 229.929 239.3345 229.8406 239.7298 229.7045 C 240.647 229.3889 241.5381 229.3915 242.245 229.7121 C 243.3174 230.1984 243.7546 230.845 243.7447 231.9304 C 243.7264 233.9362 242.1523 234.9525 237.9032 235.7018 C 237.096 235.8442 236.1947 236.0663 235.9002 236.1954 C 235.3057 236.4562 234.9521 236.4848 234.6316 236.2981 Z" fill="#000000" fill-opacity="1" stroke="#000000" stroke-opacity="1" stroke-width="0.1" stroke-linecap="round" stroke-linejoin="round"/>
</svg>